# xmcd
#
# Track frame offsets:
#	150
#	19606
#	40297
#	60806
#	78601
#	99052
#	120541
#	136408
#	154914
#	173191
#	192600
#	208574
#	228583
#	275078
#
# Disc length: 3879 seconds
#
# Revision: 1
# Processed by: cddbd v1.4PL0 Copyright (c) Steve Scherf et al.
# Submitted via: EasyCDDAExtractor 6.0.0.1
#
DISCID=bb0f250e
DTITLE=Shalim
DYEAR=2002
DGENRE=Latin
TTITLE0=nadie como tu
TTITLE1=si estuvieras junto a mi
TTITLE2=mentira
TTITLE3=la cruz va por dentro
TTITLE4=entregate
TTITLE5=come down
TTITLE6=mata tu amor
TTITLE7=corazon
TTITLE8=mi tesoro
TTITLE9=gitana
TTITLE10=i can let go
TTITLE11=sonar
TTITLE12=nadie como tu (spanglish club edit)
TTITLE13=DATA
EXTD=
EXTT0=
EXTT1=
EXTT2=
EXTT3=
EXTT4=
EXTT5=
EXTT6=
EXTT7=
EXTT8=
EXTT9=
EXTT10=
EXTT11=
EXTT12=
EXTT13=
PLAYORDER=
